<svg width="36" height="37" viewBox="0 0 36 37" fill="none" xmlns="http://www.w3.org/2000/svg">
<g clip-path="url(#clip0_26_56)">
<path d="M35.9811 18.7646C35.9811 17.2553 35.8586 16.1539 35.5936 15.0117H18.3586V21.824H28.4751C28.2713 23.517 27.1699 26.0665 24.7223 27.7797L24.6879 28.0078L30.1373 32.2293L30.5148 32.267C33.9822 29.0647 35.9811 24.3532 35.9811 18.7646Z" fill="#4285F4"/>
<path d="M18.3586 36.7134C23.3149 36.7134 27.4757 35.0816 30.5148 32.267L24.7223 27.7797C23.1722 28.8607 21.0917 29.6154 18.3586 29.6154C13.5044 29.6154 9.38433 26.4133 7.91565 21.9872L7.70038 22.0055L2.03406 26.3908L1.95996 26.5968C4.97858 32.5932 11.1791 36.7134 18.3586 36.7134Z" fill="#34A853"/>
<path d="M7.91565 21.9873C7.52813 20.8451 7.30386 19.6212 7.30386 18.3567C7.30386 17.0921 7.52813 15.8683 7.89526 14.7261L7.885 14.4829L2.14767 10.0272L1.95995 10.1165C0.715833 12.6049 0.00195312 15.3992 0.00195312 18.3567C0.00195312 21.3142 0.715833 24.1084 1.95995 26.5968L7.91565 21.9873Z" fill="#FBBC05"/>
<path d="M18.3587 7.09787C21.8056 7.09787 24.1307 8.58679 25.4566 9.83105L30.6372 4.77274C27.4555 1.81528 23.3149 0 18.3587 0C11.1791 0 4.97859 4.12002 1.95996 10.1165L7.89528 14.7261C9.38434 10.3001 13.5044 7.09787 18.3587 7.09787Z" fill="#EB4335"/>
</g>
<defs>
<clipPath id="clip0_26_56">
<rect width="36" height="36.84" fill="white"/>
</clipPath>
</defs>
</svg>
